# xmcd
#
# Track frame offsets:
#	150
#	19550
#	33520
#	46842
#	62047
#	74385
#	91475
#	106175
#	119917
#	134352
#
# Disc length: 1994 seconds
#
# Revision: 5
# Processed by: cddbd v1.5.2PL0 Copyright (c) Steve Scherf et al.
# Submitted via: audiograbber 1.83.01
#
DISCID=8907c80a
DTITLE=Kris Kristofferson - The Silver Tongued Devil And I
DYEAR=1988
DGENRE=Country
TTITLE0=The Silver Tongued Devil And I
TTITLE1=Jody And The Kid
TTITLE2=Billy Dee
TTITLE3=Good Christian Soldier
TTITLE4=Breakdown (A Long Way From Home)
TTITLE5=Loving Her Was Easier (Than Anything I'll Ever Do Again)
TTITLE6=The Taker
TTITLE7=When I Loved Her
TTITLE8=The Pilgrim - Chapter 33
TTITLE9=Epitaph (Black And Blue)
EXTD=(c)1988 CBS Special Products - Monument\nupc 07989443522\nAK 44352 YEAR: 1
EXTD=988
EXTT0=
EXTT1=
EXTT2=
EXTT3=
EXTT4=
EXTT5=
EXTT6=
EXTT7=
EXTT8=
EXTT9=
PLAYORDER=
